<?xml version="1.0" standalone="no"?>
<!DOCTYPE svg PUBLIC "-//W3C//DTD SVG 1.1//EN" "http://www.w3.org/Graphics/SVG/1.1/DTD/svg11.dtd" >
<!--
2013-9-30: Created.
-->
<svg>
<metadata>
Created by iconfont
</metadata>
<defs>

<font id="iconfont" horiz-adv-x="1024" >
  <font-face
    font-family="iconfont"
    font-weight="500"
    font-stretch="normal"
    units-per-em="1024"
    ascent="896"
    descent="-128"
  />
    <missing-glyph />
    
    <glyph glyph-name="duotu1" unicode="&#58916;" d="M325.750154 594.360615c0-39.778462-32.295385-71.68-72.073846-71.68-39.384615 0-71.68 31.901538-71.68 71.68 0 39.778462 32.295385 72.073846 71.68 72.073846C293.454769 666.434462 325.750154 634.139077 325.750154 594.360615zM669.971692 100.477538l-630.153846 0c-21.661538 0-39.384615 17.723077-39.384615 39.384615l0 630.153846c0 21.661538 17.723077 39.384615 39.384615 39.384615l630.153846 0c21.661538 0 39.384615-17.723077 39.384615-39.384615l0-630.153846C709.356308 118.200615 691.633231 100.477538 669.971692 100.477538zM502.193231 508.896l127.054769-169.668923 1.339077 0L630.587077 730.631385l-551.384615 0 0-409.993846 64.590769 80.777846c0 0 16.147692 22.055385 35.84 22.055385s34.658462-20.125538 34.658462-20.125538l59.076923-67.308308c0 0 7.483077-11.854769 23.236923-11.854769 14.966154 0 21.267692 11.854769 21.267692 11.854769l112.246154 173.252923c0 0 8.664615 13.390769 38.596923 13.390769C494.710154 522.680615 502.193231 508.896 502.193231 508.896zM253.282462 61.092923l498.609231-85.858462c21.267692-3.544615 41.787077 10.988308 45.686154 32.295385l106.732308 621.095385c3.544615 21.267692-10.673231 41.747692-32.295385 45.292308l-123.273846 21.267692 0-79.950769 71.325538-12.209231-71.325538-413.932308 0-49.230769c0-43.323077-35.446154-78.769231-78.769231-78.769231L253.282462 61.092923zM993.319385 481.720615l-71.286154 16.935385-13.390769-77.942154 28.317538-6.695385-107.874462-460.051692-15.714462 3.584c-14.611692-13.824-33.516308-22.055385-54.784-22.055385-4.292923 0-9.058462 0.393846-13.390769 1.142154l-545.476923 93.774769-11.421538-47.300923c-4.726154-21.228308 8.270769-42.535385 29.538462-47.616l613.612308-143.753846c20.873846-5.159385 42.141538 8.270769 47.261538 29.144615l143.753846 613.651692C1027.584 455.726769 1014.587077 476.600615 993.319385 481.720615z"  horiz-adv-x="1024" />

    
    <glyph glyph-name="shipin" unicode="&#59012;" d="M396.561067 137.570844c0.091022 0.182044 0.113778 0.022756 0.2048 0.295822-0.159289 0.546133-0.250311 0.477867-0.364089 0.659911L396.561067 137.570844zM512 732.355556c-238.774044 0-432.355556-193.581511-432.355556-432.355556s193.581511-432.355556 432.355556-432.355556 432.355556 193.581511 432.355556 432.355556S750.774044 732.355556 512 732.355556zM512-86.844444c-213.651911 0-386.844444 173.192533-386.844444 386.844444s173.192533 386.844444 386.844444 386.844444 386.844444-173.192533 386.844444-386.844444S725.651911-86.844444 512-86.844444zM699.050667 324.075378l0.2048-0.136533c4.050489-2.616889 6.508089-4.369067 6.872178-4.937956l-6.872178 4.937956C656.634311 351.495822 428.4416 482.044444 420.977778 482.044444c-7.099733 0-13.198222-3.458844-17.385244-8.556089-2.798933-2.753422-6.394311-10.558578-7.486578-14.631822-1.251556-4.573867-0.796444-316.848356 0.637156-320.989867 3.254044-12.151467 19.319467-21.7088 31.470933-18.454756 2.844444 0.955733 5.370311 2.412089 7.600356 4.346311l263.964444 151.529244c10.581333 2.844444 16.952889 12.765867 16.361244 23.278933C716.731733 309.124978 709.632 321.230933 699.050667 324.075378zM443.733333 179.054222 443.733333 418.1696l208.258844-119.580444L443.733333 179.054222z"  horiz-adv-x="1024" />

    
    <glyph glyph-name="text" unicode="&#59034;" d="M288.633235 607.300762l446.731484 0L735.364719 474.732467l-13.261025 0.088004c-7.720845 30.709419-16.270569 52.302203-25.91216 65.759703-9.639544 13.458523-22.638603 24.233937-39.127136 32.477692-9.16166 4.03285-25.345248 6.083555-48.682769 6.083555l-51.123354 0-0.611937-336.608388c-1.394766-23.839965 1.394766-18.059308 0-33.261545-0.611937-6.783497 13.173021-20.022009 21.375843-24.733311 8.28878-4.602831 33.500998-5.692652 47.63388-5.692652l19.107173 0 0-18.735713L378.145921 160.109814 378.145921 180.11238l21.98471 0c14.394848 0 31.495318 1.176802 40.045041 6.194072 6.457062 3.533476 26.959002 1.373277 27.176966 24.25338 0.87288 31.494295 2.7486 8.723685 0 31.974225L467.352639 579.142445l-50.906413 0c-33.414017 0-57.537438-6.957459-72.5432-21.00336-21.331841-19.629059-34.767851-47.197952-40.35101-83.491553l-15.485693 0L288.633235 607.300762zM958.709483 651.969101l0-536.025183c0-98.629321-79.960123-178.608887-178.718381-178.608887L243.964896-62.664969c-98.585319 0-178.674379 79.979566-178.674379 178.608887L65.290517 651.969101c0 98.717326 80.090083 178.696892 178.674379 178.696892l536.026206 0C878.74936 830.665992 958.709483 750.685403 958.709483 651.969101zM869.413737 607.300762c0 74.003458-60.067051 134.071532-134.049019 134.071532L288.633235 741.372294c-73.981968 0-133.919059-60.067051-133.919059-134.071532l0-446.601524c0-74.091462 59.937091-134.049019 133.919059-134.049019l446.731484 0c73.981968 0 134.049019 59.957557 134.049019 134.049019L869.413737 607.300762z"  horiz-adv-x="1024" />

    
    <glyph glyph-name="text1" unicode="&#59418;" d="M960 640 960 832l-192 0 0-64L192 768 192 832 0 832l0-192 64 0 0-512L0 128l0-192 192 0 0 64 576 0 0-64 192 0 0 192-64 0L896 640 960 640zM832 768l64 0 0-64-64 0L832 768zM64 768l64 0 0-64L64 704 64 768zM64 0l0 64 64 0 0-64L64 0zM896 0l-64 0 0 64 64 0L896 0zM832 128l-64 0 0-64L192 64l0 64L128 128 128 640l64 0L192 704l576 0 0-64 64 0L832 128zM704 544C704 526.336 689.664 512 672 512L512 512l0-288C512 206.336 497.664 192 480 192S448 206.336 448 224L448 512 288 512C270.336 512 256 526.336 256 544S270.336 576 288 576l384 0C689.664 576 704 561.664 704 544z"  horiz-adv-x="1024" />

    
    <glyph glyph-name="images" unicode="&#59009;" d="M915.2 615.6l-165 8-9.6 107.6c-2 22.6-22.2 38.4-45.8 36.6L102.8 719.2c-23.6-2-40.6-21-38.8-43.4l42.4-471.6c2-22.6 22.4-38.4 45.8-36.6l30 2.4-4.8-91.6c-1.2-25.2 18.4-45.6 44.8-47L882.6 0c26.4-1.2 48.2 17.2 49.6 42.4L960 569C961.2 594 941.4 614.4 915.2 615.6zM205.2 605l-14.2-269.6L156.2 286l-32 356c0 0.4 0 0.6 0 1s0 0.6 0 1c1 10 8.6 18 19 18.8l522 42.8c10.4 0.8 19.4-6 21-15.8 0-0.4 0.6-0.4 0.6-0.8 0-0.2 0.6-0.4 0.6-0.8l5.4-61.6-438 21C228.4 648.4 206.4 630 205.2 605zM873.4 131.2l-93.4 110.6-55 65.4c-4.8 5.8-12.6 10.6-21.2 11-8.6 0.4-15-3-22.2-8.2l-32.8-23.8c-7-4.2-12.4-7-19.8-6.6-7.2 0.4-13.6 3.2-18.2 7.6-1.6 1.6-4.6 4.4-7 6.8l-85.6 97.8c-6.2 7.8-16.4 12.8-27.6 13.4-11.4 0.6-22.4-4.2-29.6-11.2L258.8 176.4l-13.6-14.8 0.6 13.6 13.6 257.8 6.6 125.8c0 0.4 0 0.8 0 1 0 0.4 0 0.8 0 1 2.8 10.8 12.4 18.6 23.8 18l408.4-19.6 57.4-2.8 116.6-5.6c11.6-0.6 20.6-9.4 20.8-20.4 0-0.4 0.6-0.6 0.6-1 0-0.4 0.6-0.6 0.6-1L873.4 131.2zM746.4 371.4c38.8 0 70.4 31.6 70.4 70.4s-31.4 70.4-70.4 70.4c-38.8 0-70.4-31.4-70.4-70.4S707.4 371.4 746.4 371.4z"  horiz-adv-x="1024" />

    
    <glyph glyph-name="yinpin" unicode="&#59011;" d="M574.656 850.048C563.52 861.184 546.752 863.232 533.568 856.192 527.104 853.312 521.6 848.512 517.824 842.624L242.048 566.912 73.152 566.912C32.768 566.912 0 534.144 0 493.696l0-219.456c0-40.384 32.768-73.152 73.152-73.152l168.896 0 275.776-275.776c3.84-5.952 9.28-10.688 15.744-13.568 13.248-7.04 29.952-4.992 41.088 6.144 6.144 6.208 9.472 14.08 10.112 22.144 0.256 1.6 0.384 3.328 0.384 5.056L585.152 822.912c0 1.664-0.128 3.392-0.384 4.992C584.128 836.032 580.8 843.904 574.656 850.048zM512 30.016 278.208 263.808C272 269.952 264.064 273.344 256 273.856L256 274.24 109.696 274.24c-20.224 0-36.544 16.384-36.544 36.544L73.152 457.152c0 20.16 16.32 36.544 36.544 36.544L256 493.696 256 494.08c8.064 0.576 16 3.968 22.208 10.112L512 738.048 512 30.016zM668.992 167.872c6.976-6.4 15.808-9.472 24.576-9.472 9.92 0 19.904 4.032 27.136 12.032 54.848 60.544 85.12 139.072 85.12 220.864 0 79.36-28.672 156.032-80.704 215.872-13.248 15.232-36.288 16.896-51.584 3.648s-16.896-36.352-3.648-51.648c40.448-46.528 62.656-106.112 62.656-167.872 0-63.616-23.488-124.672-66.176-171.776C652.864 204.544 654.08 181.44 668.992 167.872zM716.48 852.288c-18.496 8.128-40.064-0.384-48.128-18.88-8.128-18.496 0.384-40.064 18.88-48.128 160.128-69.888 263.616-227.904 263.616-402.496 0-175.36-104.064-333.568-265.088-403.136-18.56-8-27.072-29.504-19.072-48.064 5.952-13.824 19.456-22.08 33.536-22.08 4.864 0 9.728 0.96 14.528 3.008C902.656-6.4 1024 178.176 1024 382.784 1024 586.56 903.296 770.816 716.48 852.288z"  horiz-adv-x="1024" />

    
    <glyph glyph-name="loading" unicode="&#58882;" d="M512.151961 892.021386l-0.308015 0c-21.655206 0-39.162952-17.479093-39.162952-39.021735l0-238.350526c0-21.61939 17.507746-39.098483 39.162952-39.098483l0.308015 0c21.655206 0 39.163975 17.479093 39.163975 39.098483L551.315936 852.998627C551.316959 874.542292 533.807167 892.021386 512.151961 892.021386zM373.688399 579.966207L205.552028 747.785354c-15.474436 15.409968-40.547485 15.409968-56.057737 0-15.436574-15.486716-15.436574-40.478923 0-55.964616l168.174234-167.82017c15.434527-15.408945 40.546461-15.408945 56.018851 0C389.162836 539.487284 389.162836 564.480514 373.688399 579.966207zM281.307386 455.929216L43.520701 455.929216c-21.886473 0-39.625486-17.71036-39.625486-39.559994s17.739013-39.558971 39.625486-39.558971l237.786685 0c21.886473 0 39.663348 17.71036 39.663348 39.558971S303.193859 455.929216 281.307386 455.929216zM370.273626 307.637822c-15.434527 15.409968-40.547485 15.409968-56.019875 0L146.115334 139.818675c-15.511275-15.485693-15.511275-40.554648 0-55.964616 15.474436-15.487739 40.547485-15.487739 56.059783 0l168.098509 167.819147C385.785925 267.08215 385.785925 292.151106 370.273626 307.637822zM512.017908 257.201106c-21.922289 0-39.663348-17.709337-39.663348-39.557948l0-237.352803c0-21.850657 17.740036-39.558971 39.663348-39.558971 21.88852 0 39.626509 17.709337 39.626509 39.558971L551.644417 217.643158C551.644417 239.491769 533.906427 257.201106 512.017908 257.201106zM877.377106 139.751137L709.239711 307.571307c-15.473413 15.485693-40.583301 15.485693-56.05876 0-15.473413-15.410991-15.473413-40.479947 0-55.889915l168.137395-167.818123c15.473413-15.488763 40.584324-15.488763 56.05876 0C892.850519 99.27426 892.850519 124.343215 877.377106 139.751137zM978.390731 455.929216L742.408135 455.929216c-21.694091 0-39.317471-17.709337-39.317471-39.559994 0-21.848611 17.623379-39.558971 39.317471-39.558971l235.982596 0c21.694091 0 39.316447 17.71036 39.316447 39.558971C1017.707179 438.219879 1000.085846 455.929216 978.390731 455.929216zM864.81193 737.224834c-14.820544 14.795984-38.780235 14.795984-53.562916 0L650.638035 576.917778c-14.744819-14.719236-14.744819-38.639019 0-53.435003 14.820544-14.719236 38.779212-14.719236 53.524031 0l160.649863 160.306033C879.554702 698.584792 879.554702 722.504574 864.81193 737.224834z"  horiz-adv-x="1024" />

    
    <glyph glyph-name="duotu" unicode="&#58938;" d="M768 713.152H109.696c-40.384 0-73.152-32.768-73.152-73.152v-658.304c0-40.384 32.768-73.152 73.152-73.152H768c40.384 0 73.152 32.768 73.152 73.152V640c0 40.384-32.768 73.152-73.152 73.152z m0-694.848c0-20.224-16.384-36.608-36.544-36.608H146.304c-20.224 0-36.544 16.384-36.544 36.608V603.456c-0.064 20.16 16.32 36.544 36.544 36.544h585.152c20.16 0 36.544-16.384 36.544-36.544v-585.152zM950.848 859.456H219.456c-20.224 0-36.608-16.384-36.608-36.608s16.384-36.544 36.608-36.544H914.24v-694.848c0-20.224 16.384-36.544 36.608-36.544 20.16 0 36.544 16.32 36.544 36.544V822.848c0.064 20.16-16.32 36.608-36.544 36.608z"  horiz-adv-x="1024" />

    
    <glyph glyph-name="shipin1" unicode="&#59021;" d="M504.778 414.117c-50 30.117-126.508 76.506-173.499 105.415-55.422 33.74-55.422-16.867-55.422-16.867v-235.543s0-50.604 50.604-19.882c59.638 36.144 119.283 72.291 178.316 109.046 48.199 27.714 28.314 40.364 0 57.833zM985.503 646.653c-7.83 4.818-18.071 4.818-26.505 0l-212.050-121.691v73.486c0 55.422-45.79 100.601-101.809 100.601h-518.082c-56.030 0-101.809-45.187-101.809-100.601v-428.319c0-55.422 45.79-100.601 101.809-100.601h518.082c56.030 0 101.809 45.187 101.809 100.601v73.486l212.647-121.086c7.83-4.818 18.071-4.818 26.505 0 7.83 4.818 13.258 13.258 13.258 22.901v478.923c-0.599 8.434-5.422 17.471-13.853 22.289zM946.348 190.021l-212.647 121.691c-7.83 4.818-18.071 4.818-26.505 0-7.83-4.818-13.258-13.258-13.258-22.901v-119.283c0-26.505-21.692-48.199-48.791-48.199h-518.082c-27.108 0-48.791 21.692-48.791 48.199v428.319c0 26.505 21.692 48.199 48.791 48.199h518.082c27.108 0 48.791-21.692 48.791-48.199v-119.283c0-9.041 5.422-18.071 13.258-22.901s18.071-4.818 26.505 0l212.647 121.086v-386.752z"  horiz-adv-x="1024" />

    
    <glyph glyph-name="requm" unicode="&#58964;" d="M815.981714 456.070095l-54.02819 31.890286 63.000381 105.374476c38.278095 64.024381 15.555048 145.456762-51.346286 182.710857-67.632762 37.692952-154.575238 15.457524-193.194667-49.200762l-145.798095-243.809523c-38.180571-63.829333-15.36-145.261714 51.44381-182.51581l8.582095-4.729905-30.817524-54.564571-8.435809 4.729905c-97.572571 54.369524-131.169524 174.86019-74.800762 269.06819l145.798095 243.809524C582.558476 852.845714 707.096381 884.882286 804.327619 830.659048c97.572571-54.418286 131.072-174.908952 74.605714-269.312l-62.902857-105.325715z m46.226286 115.273143c50.761143 84.894476 20.675048 193.194667-67.388952 242.249143-88.064 49.103238-200.996571 20.041143-251.708953-64.75581l-145.798095-243.809523c-49.005714-81.92-22.332952-186.026667 59.196952-237.080381l-8.045714-7.948191c-69.778286 44.519619-101.522286 174.421333-59.294476 245.028572l153.941333 253.854476C587.239619 832.609524 718.06781 866.499048 794.819048 823.734857c76.409905-42.617905 128.146286-168.764952 84.163047-242.346667l-63.000381-109.568-6.777904 10.873905 53.00419 88.649143zM163.937524 185.734095l63.000381 105.325715 54.02819-31.939048-63.000381-105.325714c-38.278095-64.073143-15.506286-145.456762 51.346286-182.759619 67.632762-37.692952 154.575238-15.408762 193.243429 49.249523l145.798095 243.809524c38.13181 63.780571 15.311238 145.212952-51.492572 182.467048l-8.582095 4.778666 30.817524 54.51581 8.484571-4.729905c97.52381-54.369524 131.120762-174.86019 74.752-269.06819l-145.798095-243.809524c-56.173714-93.915429-180.711619-126.000762-277.942857-71.777524-97.572571 54.369524-131.072 174.86019-74.605714 269.263238z m63.000381 0c-50.761143-84.845714-60.806095-165.595429 27.257905-214.698666 88.064-49.103238 164.035048-45.592381 214.747428 39.204571l139.410286 236.495238c49.005714 81.92 47.932952 153.502476-33.596953 204.604952v7.216762c69.827048-44.568381 92.550095-133.90019 50.322286-204.458666l-145.798095-243.858286c-44.129524-73.776762-142.677333-98.986667-219.428572-56.222476-76.458667 42.569143-102.595048 136.192-58.611809 209.724952L254.19581 252.342857v-13.945905l-27.306667-52.614095z"  horiz-adv-x="1024" />

    
    <glyph glyph-name="shoujiduanxin" unicode="&#59191;" d="M493.572336-26.828511h-216.073395c-54.921665 0-99.726182 44.804517-99.726182 99.726182v654.724065c0 54.921665 44.804517 99.726182 99.726182 99.726182h389.510233c54.921665 0 99.726182-44.804517 99.726182-99.726182v-291.229358c0-13.730416-11.562456-25.292872-25.292872-25.292872s-25.292872 11.562456-25.292872 25.292872v291.229358c0 26.738179-22.402258 49.140438-49.140438 49.140438h-389.510233c-26.738179 0-49.140438-22.402258-49.140437-49.140438v-654.724065c0-26.738179 22.402258-49.140438 49.140437-49.140437h216.073395c13.730416 0 25.292872-11.562456 25.292872-25.292873s-10.839802-25.292872-25.292872-25.292872zM671.345095-83.918137c-7.226535 0-13.730416 3.613267-18.066337 10.117149l-26.738179 41.191249c-19.511644 11.562456-83.827805 55.644319-101.894143 141.640085-2.890614 14.45307-5.058574 29.628793-5.058574 44.804516 0 115.624559 94.667608 210.292167 211.01482 210.292167s211.01482-94.667608 211.01482-211.01482c0-114.901905-92.499647-208.124206-206.678899-211.01482l-54.921666-24.570219c-2.16796-1.445307-5.781228-1.445307-8.671842-1.445307z m59.257587 404.685956c-92.499647 0-167.65561-75.155963-167.655611-166.932957 0-12.285109 1.445307-24.570219 3.613268-35.410021 16.62103-79.491884 83.827805-114.901905 84.550458-115.624559 3.613267-1.445307 6.503881-4.335921 7.949189-7.226535l19.511644-30.351446 42.636556 18.78899c2.890614 1.445307 5.781228 2.16796 8.671842 2.167961 92.499647 0 167.65561 75.155963 167.655611 167.65561s-74.43331 166.932957-166.932957 166.932957zM637.380381 158.893437m-27.460833 0a27.460833 27.460833 0 1 1 54.921666 0 27.460833 27.460833 0 1 1-54.921666 0ZM734.215949 158.893437m-27.460833 0a27.460833 27.460833 0 1 1 54.921666 0 27.460833 27.460833 0 1 1-54.921666 0ZM830.328864 158.893437m-27.460833 0a27.460833 27.460833 0 1 1 54.921666 0 27.460833 27.460833 0 1 1-54.921666 0ZM451.658433 131.432604h-228.358504c-13.730416 0-25.292872 11.562456-25.292872 25.292872s11.562456 25.292872 25.292872 25.292873h228.358504c13.730416 0 25.292872-11.562456 25.292873-25.292873s-11.562456-25.292872-25.292873-25.292872z"  horiz-adv-x="1024" />

    
    <glyph glyph-name="zanting" unicode="&#58880;" d="M278.8 766H370v-764h-91.2zM654 766h91.2v-764H654z"  horiz-adv-x="1024" />

    
    <glyph glyph-name="icon-test" unicode="&#58894;" d="M48.761905 749.83619v-731.67238A97.52381 97.52381 0 0 1 146.16381-79.238095h731.67238A97.52381 97.52381 0 0 1 975.238095 18.16381V749.83619A97.52381 97.52381 0 0 1 877.83619 847.238095H146.16381A97.52381 97.52381 0 0 1 48.761905 749.83619z m-48.761905 0A146.285714 146.285714 0 0 0 146.16381 896h731.67238A146.285714 146.285714 0 0 0 1024 749.83619v-731.67238A146.285714 146.285714 0 0 0 877.83619-128H146.16381A146.285714 146.285714 0 0 0 0 18.16381V749.83619z m170.861714-195.925333H292.571429v48.761905H170.861714v-48.761905z m219.233524 0h462.823619v48.761905H390.095238v-48.761905z m-219.721143-193.950476H292.571429v48.469333H170.374095v-48.469333z m220.111238-0.073143h462.409143v47.299048H390.485333v-47.299048z m-219.282285-195.437714H292.571429v48.761905H171.203048v-48.761905z m218.770285 2.194286l462.482286-2.194286v48.761905h-462.506667v-46.567619z"  horiz-adv-x="1024" />

    
    <glyph glyph-name="xialaxuanzeti" unicode="&#58958;" d="M877.696 896H146.304A146.752 146.752 0 0 1 0 749.696v-731.392A146.752 146.752 0 0 1 146.304-128h731.392A146.752 146.752 0 0 1 1024 18.304V749.696A146.752 146.752 0 0 1 877.696 896zM296 462.016C273.92 489.6 284.992 512 319.808 512h384.384c35.2 0 46.208-22.016 23.808-49.984l-176-220.032c-22.08-27.584-57.6-27.968-80 0L296 462.08z"  horiz-adv-x="1024" />

    
    <glyph glyph-name="text3" unicode="&#59188;" d="M779.776 704H224a32 32 0 0 1 0-64h245.888v-597.888a32 32 0 0 1 64 0V640h245.888a32 32 0 0 1 0 64"  horiz-adv-x="1024" />

    
    <glyph glyph-name="yinpin1" unicode="&#59116;" d="M313.2 547.9v-325.6l1.7-1.7L542.8 46V724.2L313.2 547.9z m412.4 131.2c-16.2 9.4-21.2 30.4-11.8 46.6 9.9 15.9 30.7 21.2 46.6 11.6 60.8-36.2 111.7-88.3 146.4-150 34-59.8 53.8-128.8 53.8-202.2 0-73.3-19.8-142.3-53.8-202.1-34.7-61.8-85.6-113.9-146.4-150.3-15.9-9.9-36.6-4.6-46.6 11.8-9.4 15.9-4.4 37.2 11.8 46.3 51.1 30.4 93.1 73.8 122.5 125.5 28 49.7 44.4 107.1 44.4 168.8 0 61.3-16.4 119.2-44.4 168.6-29.4 51.6-71.3 95.3-122.5 125.4zM272.1 540.9H133.7v-311.6h138.4V540.9z m9 68L554.4 818.5c6.3 5.1 14 8 22.4 8 19.1 0 34-15 34-33.8v-225.3c31.8-13 58.9-33.8 79.6-60.3 26.5-33.8 42.5-76 42.5-122.1 0-46.1-15.9-88.5-42.5-122.1-20.3-26.5-47.8-47.3-79.6-60.3V-22.7c0-7.7-2.4-14.7-7-21-11.6-14.7-32.8-17.6-47.5-6L281.1 161.2H99.4c-18.8 0-34 15.2-34 33.8V574.9c0 18.8 15.2 34 34 34h181.7z m329.7-86.3v-275c18.8 10.1 34.8 24.1 47.8 40.5 21 26.5 33.5 60.3 33.5 96.9 0 36.2-12.8 70.2-33.5 96.7-13 16.7-29 30.5-47.8 40.9z"  horiz-adv-x="1024" />

    
    <glyph glyph-name="duohangwenben" unicode="&#58891;" d="M164.352 782.336c-23.04 0-46.08-28.672-46.08-56.832v-113.664c0-28.672 23.04-51.2 46.08-51.2s41.472 22.528 41.472 51.2l4.608 56.832H348.16v-523.264H279.552c-23.04 0-41.472-22.528-41.472-51.2s18.432-51.2 41.472-51.2h229.888c23.04 0 41.472 22.528 41.472 51.2s-18.432 51.2-41.472 51.2H440.32V668.672h142.336v-56.832c0-28.672 23.04-51.2 46.08-51.2 23.04 5.632 41.472 22.528 41.472 51.2V725.504c0 28.672-23.04 56.832-46.08 56.832H164.352zM871.936 322.56h-189.44c-18.432 0-33.28 14.848-33.28 33.28s14.848 33.28 33.28 33.28h189.44c18.432 0 33.28-14.848 33.28-33.28s-14.848-33.28-33.28-33.28zM871.936 182.784h-189.44c-18.432 0-33.28 14.848-33.28 33.28s14.848 33.28 33.28 33.28h189.44c18.432 0 33.28-14.848 33.28-33.28s-14.848-33.28-33.28-33.28zM871.936 42.496h-189.44c-18.432 0-33.28 14.848-33.28 33.28s14.848 33.28 33.28 33.28h189.44c18.432 0 33.28-14.848 33.28-33.28 0-17.92-14.848-33.28-33.28-33.28z"  horiz-adv-x="1024" />

    
    <glyph glyph-name="duoxiangxuanze" unicode="&#58892;" d="M75.20597333333336 830.5944651851851v-873.7860266666667h873.8133333333334V830.5944651851851h-873.8133333333334z m339.70972444444436-672.2036622222222L205.60213333333343 394.4091496296296l52.15800888888889 46.22335999999999 164.61368888888887-185.60227555555556L801.6099555555555 568.9874962962963l44.426808888888885-53.68263111111111-431.1210666666667-356.91406222222224z"  horiz-adv-x="1024" />

    
    <glyph glyph-name="delete-black" unicode="&#59026;" d="M612.91165655 864C347.3366078 864 132.91165655 649.57504875 132.91165655 384S347.3366078-96 612.91165655-96s480 214.42495125 480 480S878.4867053 864 612.91165655 864m201.63742688-681.63742687c-12.78752438-12.78752438-35.24366437-12.78752438-48.03118875 0l-153.60623813 153.60623812-153.60623719-153.60623812c-12.78752438-12.78752438-35.24366437-12.78752438-48.03118968 0s-12.78752438 35.24366437 0 48.03118875l153.60623812 153.60623812-153.60623812 153.60623813c-12.78752438 12.78752438-12.78752438 35.24366437 0 48.03118875s35.24366437 12.78752438 48.03118968 0l153.60623719-153.60623813 153.60623813 153.60623813c12.78752438 12.78752438 35.24366437 12.78752438 48.03118875 0s12.78752438-35.24366437 0-48.03118875l-153.60623719-153.60623813 153.60623719-153.60623812c16.06237781-12.78752438 16.06237781-35.08771969 0-48.03118875"  horiz-adv-x="1260" />

    
    <glyph glyph-name="tupian1" unicode="&#58943;" d="M981.1 770v-772H43.3V770h937.8m42.9 42.9H0.4v-857.8H1024V812.9zM33.5 68.9L0 95.7l169.7 211.8c12.8 15.9 30.9 25.5 50.8 27s39-5.1 54-18.7l147.6-135.1L659 476.3c12.8 16.1 30.9 25.8 50.9 27.3 20.1 1.4 39.1-5.3 54-19.1l259.3-237.6-29-31.6-259.4 237.6c-6.2 5.7-13.9 8.5-21.7 7.9-8-0.6-15.4-4.6-20.7-11.3L441.2 136c-3.7-4.6-9.2-7.5-15.1-8-6.1-0.4-11.8 1.6-16.1 5.6L245.6 284.1c-6 5.5-13.8 8.3-21.8 7.6-8.1-0.6-15.4-4.6-20.7-11.1L33.5 68.9zM284 467c-60.1 0-109 48.9-109 109s48.9 109 109 109 109-48.9 109-109-48.9-109-109-109z m0 175.1c-36.5 0-66.1-29.7-66.1-66.1s29.7-66.1 66.1-66.1 66.1 29.7 66.1 66.1-29.7 66.1-66.1 66.1z"  horiz-adv-x="1024" />

    
    <glyph glyph-name="paly" unicode="&#59185;" d="M880.64 433.664L202.24 855.04C163.84 878.08 114.176 848.896 114.176 805.376v-842.24c0-44.032 49.664-73.216 87.552-49.664l675.84 421.376c40.96 19.968 40.96 78.336 3.072 98.816z"  horiz-adv-x="1024" />

    
    <glyph glyph-name="image" unicode="&#58923;" d="M921.134545-127.813818H105.239273a104.727273 104.727273 0 0 0-104.634182 104.634182V790.900364A104.727273 104.727273 0 0 0 105.192727 895.581091h815.941818a104.727273 104.727273 0 0 0 104.634182-104.680727v-814.08a104.727273 104.727273 0 0 0-104.680727-104.634182zM105.239273 843.264c-28.858182 0-52.317091-23.458909-52.317091-52.317091v-814.08c0-28.858182 23.458909-52.363636 52.317091-52.363636h815.941818c28.858182 0 52.317091 23.458909 52.317091 52.317091V790.900364c0 28.858182-23.458909 52.363636-52.317091 52.363636H105.239273zM50.827636 90.903273l168.96 161.373091c5.771636 6.842182 26.205091 27.741091 58.600728 30.999272 26.391273 2.746182 52.968727-7.074909 78.568727-28.997818 7.912727-6.795636 15.778909-14.103273 23.552-21.410909 24.669091-23.04 49.803636-46.638545 68.701091-43.287273 9.355636 1.861818 28.997818 13.312 55.016727 69.259637 55.575273 119.528727 107.287273 201.355636 178.967273 212.107636 42.728727 6.702545 86.434909-14.708364 129.815273-62.789818l160.488727-165.608727 0.232727-332.753455s-627.665455 2.885818-921.646545-2.141091l-1.256728 183.249455z m255.720728 347.601454A91.694545 91.694545 0 0 0 214.946909 530.152727a91.694545 91.694545 0 0 0 91.601455 91.554909 91.694545 91.694545 0 0 0 91.554909-91.554909A91.694545 91.694545 0 0 0 306.548364 438.458182z"  horiz-adv-x="1070" />

    
    <glyph glyph-name="tubiao-" unicode="&#58961;" d="M270.222222 185.457778A256.568889 256.568889 0 0 1 368.64 384a256.568889 256.568889 0 0 1-98.417778 199.111111 50.062222 50.062222 0 0 1-64.853333-2.844444 38.684444 38.684444 0 0 1-12.515556-25.6 40.391111 40.391111 0 0 1 14.791111-30.72A178.062222 178.062222 0 0 0 276.48 384a177.493333 177.493333 0 0 0-67.697778-137.671111 38.115556 38.115556 0 0 1-2.844444-56.888889 48.924444 48.924444 0 0 1 64.284444-2.844444m175.786667-135.964445A448.853333 448.853333 0 0 1 600.177778 384a448.853333 448.853333 0 0 1-154.737778 335.075556 50.062222 50.062222 0 0 1-65.991111 0 38.115556 38.115556 0 0 1 0-56.888889A369.777778 369.777778 0 0 0 507.448889 384a369.777778 369.777778 0 0 0-128-276.48 38.115556 38.115556 0 0 1 0-56.888889 50.631111 50.631111 0 0 1 65.991111 0m170.666667-136.533333A640.568889 640.568889 0 0 1 831.146667 384 640 640 0 0 1 618.951111 854.471111 50.631111 50.631111 0 0 1 552.96 856.177778a38.115556 38.115556 0 0 1-14.222222-30.151111 38.684444 38.684444 0 0 1 12.515555-28.444445A562.062222 562.062222 0 0 0 739.555556 384a560.924444 560.924444 0 0 0-187.733334-413.582222 37.546667 37.546667 0 0 1 0-56.888889 50.631111 50.631111 0 0 1 65.991111 0"  horiz-adv-x="1024" />

    
    <glyph glyph-name="zongji" unicode="&#58956;" d="M328.533333 753.066667l452.266667 25.6h-14.933333 42.666666c12.8 0 21.333333-10.666667 21.333334-23.466667l-2.133334-34.133333 19.2-12.8 25.6 83.2 8.533334 27.733333H140.8l21.333333-34.133333L405.333333 384 162.133333-19.2l-21.333333-34.133333h742.4l-8.533333 27.733333-32 96-23.466667 17.066667 4.266667-44.8c2.133333-12.8-8.533333-23.466667-21.333334-23.466667h-17.066666 14.933333l-462.933333 27.733333 264.533333 334.933334"  horiz-adv-x="1024" />

    
    <glyph glyph-name="wenben" unicode="&#59085;" d="M80.842105 896h862.31579v-53.894737H80.842105V896zM485.052632 896h53.894736v-1024h-53.894736V896z"  horiz-adv-x="1024" />

    
    <glyph glyph-name="tupian" unicode="&#60035;" d="M723.670469 680.843946a101.313827 101.313827 0 1 1 93.242121-139.167345 101.313827 101.313827 0 0 1-93.242121 139.167345zM1007.015182 895.99666H105.489126A105.210512 105.210512 0 0 1 0.000278 790.507813V-22.507813a105.210512 105.210512 0 0 1 105.488848-105.488847h901.804391A105.210512 105.210512 0 0 1 1113.339034-22.507813V790.507813A105.488847 105.488847 0 0 1 1007.015182 895.99666z m20.875102-745.658631l-161.434119 206.524339a53.718595 53.718595 0 0 1-87.118758 6.680032l-188.710919-188.989253-194.834282 250.50122a50.378579 50.378579 0 0 1-80.995395 0L83.500685 147.833017V748.479275a63.738644 63.738644 0 0 0 67.913664 67.356995h809.11894a72.645354 72.645354 0 0 0 67.356995-67.356995z"  horiz-adv-x="1113" />

    
    <glyph glyph-name="danxiangxuanze" unicode="&#59159;" d="M983.481 582.605c-25.748 60.876-62.604 115.542-109.54 162.479-46.937 46.937-101.603 83.792-162.479 109.54C648.419 881.289 581.47 894.81 512.473 894.81S376.527 881.29 313.484 854.625c-60.877-25.749-115.542-62.603-162.479-109.54-46.937-46.937-83.791-101.603-109.54-162.479-26.666-63.044-40.186-129.993-40.186-198.99 0-68.997 13.52-135.946 40.185-198.989 25.749-60.877 62.604-115.542 109.54-162.479 46.937-46.937 101.603-83.791 162.479-109.539 63.043-26.665 129.993-40.186 198.989-40.186s135.946 13.521 198.989 40.186c60.877 25.748 115.543 62.603 162.479 109.539 46.937 46.938 83.792 101.603 109.54 162.479 26.665 63.043 40.186 129.992 40.186 198.989 0.001 68.997-13.52 135.946-40.185 198.989zM512.473-63.577c-246.583 0-447.194 200.61-447.194 447.193S265.89 830.81 512.473 830.81 959.667 630.2 959.667 383.617s-200.61-447.194-447.194-447.194zM511.167 383.833m-192.167 0a192.167 192.167 0 1 1 384.334 0 192.167 192.167 0 1 1-384.334 0Z"  horiz-adv-x="1024" />

    
    <glyph glyph-name="tijiao1" unicode="&#58896;" d="M947.2 557.511c-17.067 19.911-45.511 19.911-65.422 2.845L566.044 258.844 432.356 384c-17.067 19.911-45.512 22.756-65.423 5.689-19.91-17.067-22.755-45.511-5.689-65.422l2.845-2.845 164.978-150.755C537.6 159.289 551.822 153.6 563.2 153.6c14.222-2.844 28.444 0 39.822 11.378 0 0 0 2.844 2.845 2.844L944.356 492.09c17.066 17.067 19.91 45.511 2.844 65.422zM807.822 167.822C785.067 167.822 768 150.756 768 128v-119.467H145.067v748.09h620.089v-62.579c0-22.755 17.066-39.822 39.822-39.822S844.8 671.29 844.8 694.044V799.29c0 5.689 0 11.378-2.844 14.222-2.845 2.845-2.845 8.533-5.69 11.378 0 0 0 2.844-2.844 2.844-5.689 8.534-17.066 11.378-28.444 11.378H105.244c-11.377 0-19.91-5.689-28.444-11.378C68.267 819.2 65.422 810.667 65.422 799.29v-827.733c0-22.756 17.067-39.823 39.822-39.823h702.578c22.756 0 39.822 17.067 39.822 39.823V128c0 22.756-17.066 39.822-39.822 39.822z"  horiz-adv-x="1024" />

    
    <glyph glyph-name="duoxuan" unicode="&#59141;" d="M851.7632-128h-678.912A172.8512 172.8512 0 0 0 0 44.544v678.912A172.8512 172.8512 0 0 0 172.8512 896H852.2752a172.8512 172.8512 0 0 0 172.544-172.544V44.032a173.4656 173.4656 0 0 0-173.056-172.032zM178.5856 816.9472c-54.5792 0-109.568-54.9888-109.568-109.568v-652.5952c0-54.5792 54.9888-109.568 109.568-109.568h667.4432c54.5792 0 109.568 54.9888 109.568 109.568V707.4816c0 54.5792-54.9888 109.568-109.568 109.568zM793.1904 566.4768a43.008 43.008 0 0 1-61.44-1.536L432.9472 252.5184 313.856 374.6816a43.4176 43.4176 0 1 1-62.3616-60.3136L401.7152 159.4368l0.512-0.512c0.512-0.512 0.512-0.512 0.512-1.024a97.4848 97.4848 0 0 1 9.3184-6.2464 18.2272 18.2272 0 0 1 4.1984-2.56 43.2128 43.2128 0 0 1 32.256 0 44.9536 44.9536 0 0 1 5.2224 3.6864 32.1536 32.1536 0 0 1 8.8064 5.7344l0.512 0.512c0.512 0.512 0.512 0.512 1.024 0.512l330.1376 345.088a43.6224 43.6224 0 0 1-1.024 61.8496z"  horiz-adv-x="1024" />

    


  </font>
</defs>
</svg>
